<svg width="515" height="90" xmlns="http://www.w3.org/2000/svg">
 <g id="Layer_1">
  <title>Layer 1</title>
  <text xml:space="preserve" text-anchor="start" font-family="'Signika'" font-size="100" id="svg_2" y="74.99946" x="-4.24921" stroke-width="0" stroke="#559e84" fill="#559e84">MALAQUITA</text>
  <path id="svg_15" d="m8.99564,-3.74921" opacity="NaN" stroke-width="0" stroke="#559e84" fill="#559e84"/>
  <path id="svg_16" d="m8.99564,-5.24918l-0.49578,105.24754" opacity="NaN" stroke-width="0" stroke="#559e84" fill="#559e84"/>
  <line stroke="#ffffff" stroke-width="20" id="svg_17" y2="100.74908" x2="7.49567" y1="-10.2491" x1="7.49567" fill="none"/>
  <path transform="rotate(8.40235 98.368 54.9998)" stroke="#ffffff" d="m94.99306,54.87481c1.64186,0.24999 2.09793,0.24999 2.37157,0.24999c0.72972,0 1.09457,0 1.73307,0c0.18243,0 0.72972,0 1.09457,0c0.18243,0 0.54729,0 0.82093,0c0.09121,0 0.27364,0 0.36486,0c0.09121,0 0.18243,0 0.18243,0c0.09121,0 0.09121,0 0.09121,0l0.09121,0l0,0" id="svg_18" stroke-width="15" fill="none"/>
  <path transform="rotate(153.477 114.868 55.2498)" stroke="#ffffff" d="m111.49274,55.12481c1.64186,0.24999 2.09793,0.24999 2.37158,0.24999c0.72971,0 1.09457,0 1.73307,0c0.18243,0 0.72972,0 1.09457,0c0.18243,0 0.54729,0 0.82094,0c0.09121,0 0.27364,0 0.36485,0c0.09122,0 0.18243,0 0.18243,0c0.09122,0 0.09122,0 0.09122,0l0.09121,0l0,0" id="svg_19" stroke-width="15" fill="none"/>
  <line id="svg_20" y2="54.12482" x2="113.99269" y1="54.62481" x1="98.74299" stroke-width="15" stroke="#ffffff" fill="none"/>
  <path stroke="#ffffff" d="m161.74175,54.87481c1.64186,0.24999 2.09793,0.24999 2.37158,0.24999c0.72971,0 1.09457,0 1.73307,0c0.18243,0 0.72972,0 1.09457,0c0.18243,0 0.54729,0 0.82094,0c0.09121,0 0.27364,0 0.36485,0c0.09122,0 0.18243,0 0.18243,0c0.09122,0 0.09122,0 0.09122,0l0.09121,0l0,0" id="svg_21" stroke-width="15" fill="none"/>
  <path stroke="#ffffff" d="m178.49142,55.12481c1.64186,0.24999 2.09793,0.24999 2.37158,0.24999c0.72971,0 1.09457,0 1.73307,0c0.18243,0 0.72972,0 1.09457,0c0.18243,0 0.54729,0 0.82094,0c0.09121,0 0.27364,0 0.36485,0c0.09122,0 0.18243,0 0.18243,0c0.09122,0 0.09122,0 0.09122,0l0.09121,0l0,0" id="svg_22" stroke-width="15" fill="none"/>
  <line id="svg_23" y2="54.12482" x2="180.74138" y1="54.62481" x1="165.49168" stroke-width="15" stroke="#ffffff" fill="none"/>
  <path transform="rotate(8.40235 210.867 54.9998)" stroke="#ffffff" d="m207.49085,54.87481c1.64186,0.24999 2.09793,0.24999 2.37158,0.24999c0.72971,0 1.09457,0 1.73307,0c0.18243,0 0.72972,0 1.09457,0c0.18243,0 0.54729,0 0.82094,0c0.09121,0 0.27364,0 0.36485,0c0.09122,0 0.18243,0 0.18243,0c0.09122,0 0.09122,0 0.09122,0l0.09121,0l0,0" id="svg_24" stroke-width="15" fill="none"/>
  <path transform="rotate(153.477 227.368 55.2498)" stroke="#ffffff" d="m223.99053,55.12481c1.64186,0.24999 2.09793,0.24999 2.37158,0.24999c0.72971,0 1.09457,0 1.73307,0c0.18243,0 0.72972,0 1.09457,0c0.18243,0 0.54729,0 0.82094,0c0.09121,0 0.27364,0 0.36485,0c0.09122,0 0.18243,0 0.18243,0c0.09122,0 0.09122,0 0.09122,0l0.09121,0l0,0" id="svg_25" stroke-width="15" fill="none"/>
  <line id="svg_26" y2="54.12482" x2="226.49048" y1="54.62481" x1="211.24078" stroke-width="15" stroke="#ffffff" fill="none"/>
  <path transform="rotate(8.40235 475.117 54.9998)" stroke="#ffffff" d="m471.73565,54.87481c1.64186,0.24999 2.09793,0.24999 2.37158,0.24999c0.72971,0 1.09457,0 1.73307,0c0.18243,0 0.72972,0 1.09457,0c0.18243,0 0.54729,0 0.82094,0c0.09121,0 0.27364,0 0.36485,0c0.09122,0 0.18243,0 0.18243,0c0.09122,0 0.09122,0 0.09122,0l0.09121,0l0,0" id="svg_27" stroke-width="15" fill="none"/>
  <path transform="rotate(153.477 491.618 55.2498)" stroke="#ffffff" d="m488.23533,55.12481c1.64186,0.24999 2.09793,0.24999 2.37158,0.24999c0.72971,0 1.09457,0 1.73307,0c0.18243,0 0.72972,0 1.09457,0c0.18243,0 0.54729,0 0.82094,0c0.09121,0 0.27364,0 0.36485,0c0.09122,0 0.18243,0 0.18243,0c0.09122,0 0.09122,0 0.09122,0l0.09121,0l0,0" id="svg_28" stroke-width="15" fill="none"/>
  <line id="svg_29" y2="54.12482" x2="490.73528" y1="54.62481" x1="475.48558" stroke-width="15" stroke="#ffffff" fill="none"/>
  <line id="svg_30" y2="104.12384" x2="363.48778" y1="0" x1="360.73784" stroke-width="33" stroke="#ffffff" fill="none"/>
  <line id="svg_31" y2="29.8753" x2="449.98608" y1="-42.62328" x1="450.23608" stroke-width="20" stroke="#ffffff" fill="none"/>
  <g id="svg_14">
   <path stroke="#89ffd3" id="svg_3" d="m8.2824,66.9253l4.49993,-5.49991l4.49993,5.49991l-4.49993,5.49991l-4.49993,-5.49991z" stroke-width="5" fill="#89ffd3"/>
   <path stroke="#89ffd3" id="svg_6" d="m101.78088,53.42551l4.49993,-5.4999l4.49992,5.4999l-4.49992,5.49991l-4.49993,-5.49991z" stroke-width="5" fill="#89ffd3"/>
   <path stroke="#89ffd3" id="svg_7" d="m214.77902,53.42551l4.49993,-5.4999l4.49992,5.4999l-4.49992,5.49991l-4.49993,-5.49991z" stroke-width="5" fill="#89ffd3"/>
   <path stroke="#89ffd3" id="svg_9" d="m308.27749,73.42519l4.49993,-5.4999l4.49992,5.4999l-4.49992,5.49991l-4.49993,-5.49991z" stroke-width="5" fill="#89ffd3"/>
   <path stroke="#89ffd3" id="svg_10" d="m362.7766,14.92614l4.49993,-5.4999l4.49992,5.4999l-4.49992,5.49991l-4.49993,-5.49991z" stroke-width="5" fill="#89ffd3"/>
   <path stroke="#89ffd3" id="svg_11" d="m449.77518,11.4262l4.49993,-5.4999l4.49992,5.4999l-4.49992,5.49991l-4.49993,-5.49991z" stroke-width="5" fill="#89ffd3"/>
   <path stroke="#89ffd3" id="svg_12" d="m478.7747,53.42551l4.49993,-5.4999l4.49992,5.4999l-4.49992,5.49991l-4.49993,-5.49991z" stroke-width="5" fill="#89ffd3"/>
  </g>
 </g>
</svg>